{
  "accessors": [
    {
      "bufferView": 2,
      "componentType": 5126,
      "count": 16273,
      "max": [
        0.60760498046875,
        0.7304800152778625,
        1.0
      ],
      "min": [
        -0.60760498046875,
        -0.7304800152778625,
        -1.0
      ],
      "type": "VEC3"
    },
    {
      "bufferView": 2,
      "byteOffset": 195276,
      "componentType": 5126,
      "count": 16273,
      "max": [
        0.9999971389770508,
        0.999878466129303,
        0.9999667406082153
      ],
      "min": [
        -0.999946653842926,
        -0.9999499917030334,
        -0.9998183846473694
      ],
      "type": "VEC3"
    },
    {
      "bufferView": 3,
      "componentType": 5126,
      "count": 16273,
      "max": [
        0.9999906420707703,
        0.9999209046363831,
        0.9994943737983704,
        1.0
      ],
      "min": [
        -0.9998738765716553,
        -0.9999876618385315,
        -0.999866247177124,
        -1.0
      ],
      "type": "VEC4"
    },
    {
      "bufferView": 1,
      "componentType": 5126,
      "count": 16273,
      "max": [
        0.9974700212478638,
        0.9980500340461731
      ],
      "min": [
        0.0019499700283631682,
        0.01073998212814331
      ],
      "type": "VEC2"
    },
    {
      "bufferView": 1,
      "byteOffset": 130184,
      "componentType": 5126,
      "count": 16273,
      "max": [
        0.9974700212478638,
        0.9980500340461731
      ],
      "min": [
        0.0019499700283631682,
        0.01073998212814331
      ],
      "type": "VEC2"
    },
    {
      "bufferView": 1,
      "byteOffset": 260368,
      "componentType": 5126,
      "count": 16273,
      "max": [
        0.9974700212478638,
        0.9980500340461731
      ],
      "min": [
        0.0019499700283631682,
        0.01073998212814331
      ],
      "type": "VEC2"
    },
    {
      "bufferView": 1,
      "byteOffset": 390552,
      "componentType": 5126,
      "count": 16273,
      "max": [
        0.9974700212478638,
        0.9980500340461731
      ],
      "min": [
        0.0019499700283631682,
        0.01073998212814331
      ],
      "type": "VEC2"
    },
    {
      "bufferView": 1,
      "byteOffset": 520736,
      "componentType": 5126,
      "count": 16273,
      "max": [
        0.9974700212478638,
        0.9980500340461731
      ],
      "min": [
        0.0019499700283631682,
        0.01073998212814331
      ],
      "type": "VEC2"
    },
    {
      "bufferView": 0,
      "componentType": 5125,
      "count": 89670,
      "type": "SCALAR"
    },
    {
      "bufferView": 2,
      "byteOffset": 390552,
      "componentType": 5126,
      "count": 752,
      "max": [
        0.23489400744438171,
        -0.15869200229644775,
        0.8621339797973633
      ],
      "min": [
        -0.19198299944400787,
        -0.49074798822402954,
        0.5252829790115356
      ],
      "type": "VEC3"
    },
    {
      "bufferView": 2,
      "byteOffset": 399576,
      "componentType": 5126,
      "count": 752,
      "max": [
        0.999426543712616,
        0.9987166523933411,
        0.973003089427948
      ],
      "min": [
        -0.9985430240631104,
        -0.996737539768219,
        -0.9918603301048279
      ],
      "type": "VEC3"
    },
    {
      "bufferView": 3,
      "byteOffset": 260368,
      "componentType": 5126,
      "count": 752,
      "max": [
        0.9964926242828369,
        0.991203248500824,
        0.9923692345619202,
        1.0
      ],
      "min": [
        -0.9953801035881042,
        -0.9998577833175659,
        -0.999604344367981,
        -1.0
      ],
      "type": "VEC4"
    },
    {
      "bufferView": 1,
      "byteOffset": 650920,
      "componentType": 5126,
      "count": 752,
      "max": [
        0.9930999875068665,
        0.9292200207710266
      ],
      "min": [
        0.41571998596191406,
        0.15692001581192017
      ],
      "type": "VEC2"
    },
    {
      "bufferView": 1,
      "byteOffset": 656936,
      "componentType": 5126,
      "count": 752,
      "max": [
        0.9930999875068665,
        0.9292200207710266
      ],
      "min": [
        0.41571998596191406,
        0.15692001581192017
      ],
      "type": "VEC2"
    },
    {
      "bufferView": 1,
      "byteOffset": 662952,
      "componentType": 5126,
      "count": 752,
      "max": [
        0.9930999875068665,
        0.9292200207710266
      ],
      "min": [
        0.41571998596191406,
        0.15692001581192017
      ],
      "type": "VEC2"
    },
    {
      "bufferView": 1,
      "byteOffset": 668968,
      "componentType": 5126,
      "count": 752,
      "max": [
        0.9930999875068665,
        0.9292200207710266
      ],
      "min": [
        0.41571998596191406,
        0.15692001581192017
      ],
      "type": "VEC2"
    },
    {
      "bufferView": 1,
      "byteOffset": 674984,
      "componentType": 5126,
      "count": 752,
      "max": [
        0.9930999875068665,
        0.9292200207710266
      ],
      "min": [
        0.41571998596191406,
        0.15692001581192017
      ],
      "type": "VEC2"
    },
    {
      "bufferView": 0,
      "byteOffset": 358680,
      "componentType": 5125,
      "count": 3378,
      "type": "SCALAR"
    }
  ],
  "asset": {
    "extras": {
      "author": "sxnneh (https://sketchfab.com/Sxnneh)",
      "license": "CC-BY-4.0 (http://creativecommons.org/licenses/by/4.0/)",
      "source": "https://sketchfab.com/3d-models/the-golden-skull-871360449667495992e2428b94758101",
      "title": "THE GOLDEN SKULL"
    },
    "generator": "Sketchfab-16.72.0",
    "version": "2.0"
  },
  "bufferViews": [
    {
      "buffer": 0,
      "byteLength": 372192,
      "name": "floatBufferViews",
      "target": 34963
    },
    {
      "buffer": 0,
      "byteLength": 681000,
      "byteOffset": 372192,
      "byteStride": 8,
      "name": "floatBufferViews",
      "target": 34962
    },
    {
      "buffer": 0,
      "byteLength": 408600,
      "byteOffset": 1053192,
      "byteStride": 12,
      "name": "floatBufferViews",
      "target": 34962
    },
    {
      "buffer": 0,
      "byteLength": 272400,
      "byteOffset": 1461792,
      "byteStride": 16,
      "name": "floatBufferViews",
      "target": 34962
    }
  ],
  "buffers": [
    {
      "byteLength": 1734192,
      "uri": "scene.bin"
    }
  ],
  "images": [
    {
      "uri": "textures/Rosa_material_1001_baseColor.png"
    },
    {
      "uri": "textures/Rosa_material_1001_metallicRoughness.png"
    },
    {
      "uri": "textures/Rosa_material_1001_normal.png"
    },
    {
      "uri": "textures/defaultMat_material_1001_baseColor.png"
    },
    {
      "uri": "textures/defaultMat_material_1001_metallicRoughness.png"
    },
    {
      "uri": "textures/defaultMat_material_1001_normal.png"
    }
  ],
  "materials": [
    {
      "name": "Rosa_material_1001",
      "normalTexture": {
        "index": 2
      },
      "occlusionTexture": {
        "index": 1
      },
      "pbrMetallicRoughness": {
        "baseColorTexture": {
          "index": 0
        },
        "metallicRoughnessTexture": {
          "index": 1
        }
      }
    },
    {
      "name": "defaultMat_material_1001",
      "normalTexture": {
        "index": 5
      },
      "occlusionTexture": {
        "index": 4
      },
      "pbrMetallicRoughness": {
        "baseColorTexture": {
          "index": 3
        },
        "metallicRoughnessTexture": {
          "index": 4
        }
      }
    }
  ],
  "meshes": [
    {
      "name": "Object_0",
      "primitives": [
        {
          "attributes": {
            "NORMAL": 1,
            "POSITION": 0,
            "TANGENT": 2,
            "TEXCOORD_0": 3,
            "TEXCOORD_1": 4,
            "TEXCOORD_2": 5,
            "TEXCOORD_3": 6,
            "TEXCOORD_4": 7
          },
          "indices": 8,
          "material": 0,
          "mode": 4
        }
      ]
    },
    {
      "name": "Object_1",
      "primitives": [
        {
          "attributes": {
            "NORMAL": 10,
            "POSITION": 9,
            "TANGENT": 11,
            "TEXCOORD_0": 12,
            "TEXCOORD_1": 13,
            "TEXCOORD_2": 14,
            "TEXCOORD_3": 15,
            "TEXCOORD_4": 16
          },
          "indices": 17,
          "material": 1,
          "mode": 4
        }
      ]
    }
  ],
  "nodes": [
    {
      "children": [
        1
      ],
      "matrix": [
        1.0,
        0.0,
        0.0,
        0.0,
        0.0,
        2.220446049250313e-16,
        -1.0,
        0.0,
        0.0,
        1.0,
        2.220446049250313e-16,
        0.0,
        0.0,
        0.0,
        0.0,
        1.0
      ],
      "name": "Sketchfab_model"
    },
    {
      "children": [
        2
      ],
      "name": "root"
    },
    {
      "children": [
        3
      ],
      "matrix": [
        1.0,
        0.0,
        0.0,
        0.0,
        0.0,
        2.220446049250313e-16,
        1.0,
        0.0,
        0.0,
        -1.0,
        2.220446049250313e-16,
        0.0,
        0.0,
        0.0,
        0.0,
        1.0
      ],
      "name": "GLTF_SceneRootNode"
    },
    {
      "children": [
        4
      ],
      "name": "Scene_0"
    },
    {
      "children": [
        5,
        7
      ],
      "name": "Group5732_001_1"
    },
    {
      "children": [
        6
      ],
      "name": "meshId0_name_2"
    },
    {
      "mesh": 0,
      "name": "Object_6"
    },
    {
      "children": [
        8
      ],
      "name": "meshId1_name_3"
    },
    {
      "mesh": 1,
      "name": "Object_8"
    }
  ],
  "samplers": [
    {
      "magFilter": 9729,
      "minFilter": 9987,
      "wrapS": 10497,
      "wrapT": 10497
    }
  ],
  "scene": 0,
  "scenes": [
    {
      "name": "Sketchfab_Scene",
      "nodes": [
        0
      ]
    }
  ],
  "textures": [
    {
      "sampler": 0,
      "source": 0
    },
    {
      "sampler": 0,
      "source": 1
    },
    {
      "sampler": 0,
      "source": 2
    },
    {
      "sampler": 0,
      "source": 3
    },
    {
      "sampler": 0,
      "source": 4
    },
    {
      "sampler": 0,
      "source": 5
    }
  ]
}
